<svg xmlns="http://www.w3.org/2000/svg" viewBox="0 0 32 32">
  <circle cx="16" cy="16" r="15" fill="none" stroke="#111" stroke-width="1.2"/>
  <g stroke="#111" stroke-width="1.1">
    <line x1="21" y1="16" x2="28.5" y2="16"/>
    <line x1="20.62" y1="17.91" x2="27.55" y2="20.87"/>
    <line x1="19.54" y1="19.54" x2="24.95" y2="24.95"/>
    <line x1="17.91" y1="20.62" x2="20.87" y2="27.55"/>
    <line x1="16" y1="21" x2="16" y2="28.5"/>
    <line x1="14.09" y1="20.62" x2="11.13" y2="27.55"/>
    <line x1="12.46" y1="19.54" x2="7.05" y2="24.95"/>
    <line x1="11.38" y1="17.91" x2="4.45" y2="20.87"/>
    <line x1="11" y1="16" x2="3.5" y2="16"/>
    <line x1="11.38" y1="14.09" x2="4.45" y2="11.13"/>
    <line x1="12.46" y1="12.46" x2="7.05" y2="7.05"/>
    <line x1="14.09" y1="11.38" x2="11.13" y2="4.45"/>
    <line x1="16" y1="11" x2="16" y2="3.5"/>
    <line x1="17.91" y1="11.38" x2="20.87" y2="4.45"/>
    <line x1="19.54" y1="12.46" x2="24.95" y2="7.05"/>
    <line x1="20.62" y1="14.09" x2="27.55" y2="11.13"/>
  </g>
</svg>
